# 3ds Max Wavefront OBJ Exporter v0.97b - (c)2007 guruware
# File Created: 15.10.2015 16:33:14

mtllib bingci.mtl

#
# object Box4182
#

v  -131.1202 67.8881 -153.3328
v  -139.6359 70.5186 -161.1044
v  -145.0204 63.0185 -148.2032
v  -126.9045 62.0482 -163.5766
v  -92.5896 14.9215 -115.0845
v  -112.9479 47.5599 -134.8029
v  -141.7780 48.9199 -134.0720
v  -122.8028 14.4633 -101.7449
v  -104.2509 38.0266 -160.6910
v  -135.6028 38.3793 -157.2799
v  -77.7160 14.0050 -155.5499
v  -107.4618 14.9987 -172.1129
v  -136.3953 15.9924 -160.9593
v  -143.1052 14.5019 -127.2329
v  -144.1417 -0.1871 -92.0184
v  -114.7473 -0.1871 -87.5939
v  -97.1049 -0.1871 -173.0809
v  -61.3232 -0.1871 -155.4126
v  -82.7191 -0.1871 -104.0975
v  -133.6548 -0.1871 -159.8359
v  -153.4440 -0.1871 -131.5882
v  -218.5774 139.2097 -20.0441
v  -227.1946 149.5436 -29.3623
v  -238.2476 161.1863 -19.4730
v  -236.4936 142.5784 -9.0922
v  -171.7158 34.3555 -16.1913
v  -172.7411 33.5094 -40.5573
v  -186.9838 64.3631 -38.8984
v  -198.1851 87.5227 -19.9596
v  -224.6893 87.3558 -25.0217
v  -216.2285 82.0976 -0.5572
v  -214.1619 66.7129 3.5362
v  -199.9491 71.0339 -48.1040
v  -204.5326 104.7511 -41.5264
v  -196.2587 93.9074 -67.9119
v  -190.5301 64.6543 -63.0365
v  -182.0592 32.6633 -61.7658
v  -207.5357 34.4980 -42.7710
v  -182.3700 33.5094 6.7650
v  -205.7655 32.6632 9.9725
v  -215.1595 36.3328 -19.4770
v  -146.7739 -0.1871 -41.6170
v  -165.7882 -0.1871 -71.8129
v  -214.0236 -0.1871 -18.0995
v  -205.1973 -0.1871 23.2114
v  -171.3752 -0.1871 19.1217
v  -154.5182 -0.1871 -9.8057
v  -200.9630 -0.1871 -53.6423
v  -165.4621 -0.1871 122.8651
v  -150.1797 -0.1871 103.5946
v  -183.1430 19.1805 104.0170
v  -179.4163 -0.1871 52.4822
v  -203.1338 -0.1871 56.1586
v  -197.3581 34.6067 66.3233
v  -179.1537 23.5556 78.0051
v  -158.8193 -0.1871 66.6503
v  -208.9230 -0.1871 87.7491
v  -197.2019 -0.1871 113.4302
v  -206.8108 34.9280 87.7111
v  -197.1233 61.7959 82.7262
v  -203.4822 64.1909 89.8057
v  -193.0034 57.3621 94.2115
v  -205.4438 56.4786 79.2773
v  -197.3581 34.6067 66.3232
v  -114.1834 65.2617 171.2424
v  -118.8026 67.7906 176.3850
v  -111.1908 60.5799 179.5854
v  -120.2276 59.6471 168.7370
v  -91.4598 14.3386 147.9649
v  -103.1761 45.7177 160.2626
v  -102.8269 47.0253 177.5952
v  -83.6602 13.8980 166.0930
v  -118.4564 36.5523 155.1077
v  -116.5299 36.8913 173.9490
v  -115.3406 13.4575 139.1382
v  -125.2184 14.4128 157.0712
v  -118.7075 15.3681 174.4360
v  -98.7873 13.9351 178.3735
v  -77.9711 -0.1871 178.8955
v  -75.2708 -0.1871 161.2087
v  -125.7609 -0.1871 150.8466
v  -115.2123 -0.1871 129.2813
v  -84.9357 -0.1871 141.9985
v  -118.0354 -0.1871 172.7850
v  -101.3920 -0.1871 184.6025
v  13.6312 117.7338 215.7537
v  2.0136 152.3702 250.4382
v  25.7005 120.3676 226.1523
v  -4.8094 127.7328 234.8268
v  6.7595 35.3212 146.9885
v  31.0784 84.4897 195.0878
v  30.6665 31.4074 154.1437
v  22.8855 82.9837 226.5853
v  -5.5632 82.2232 215.8536
v  -11.7133 59.7473 179.4638
v  -23.9459 48.6802 196.8603
v  40.8116 141.0946 237.1848
v  39.8898 23.5719 194.6434
v  54.5093 37.9358 174.9098
v  43.9891 76.7226 200.6020
v  36.6606 77.7940 214.4361
v  -1.8973 42.9496 209.7698
v  -6.6855 32.5620 208.3165
v  21.8063 34.7050 217.2963
v  -17.0631 20.5517 158.5361
v  -22.3024 30.4191 186.5441
v  62.7213 -0.1871 152.0202
v  33.2546 -0.1871 131.0920
v  -16.0685 -0.1871 195.1951
v  -39.3155 -0.1871 174.6705
v  -27.0718 -0.1871 137.6499
v  3.6870 -0.1871 131.5382
v  20.0405 -0.1871 205.6275
v  51.1361 -0.1871 191.0748
v  183.3400 131.4222 147.9183
v  191.1750 136.5077 157.3507
v  190.2348 122.0079 144.4840
v  173.7556 120.1320 158.0748
v  152.8912 74.5315 126.9315
v  174.2790 73.4972 118.9285
v  154.2529 21.2018 85.7676
v  134.5213 33.8401 102.5504
v  143.9290 73.6912 153.5680
v  178.8898 74.3730 142.8558
v  139.3542 50.4708 142.6000
v  188.1764 79.8289 130.1908
v  187.0086 72.1293 114.9273
v  198.4222 99.8950 124.3602
v  174.4007 27.2504 97.5405
v  179.7188 34.2581 120.4838
v  116.8489 18.1284 133.8039
v  169.9273 22.0303 132.3244
v  143.2039 29.1715 140.7625
v  151.3843 -0.1871 65.7935
v  181.7542 -0.1871 74.1388
v  139.0656 -0.1871 144.3762
v  108.2068 -0.1871 136.8276
v  104.2687 -0.1871 116.6789
v  121.6712 -0.1871 87.2543
v  168.9227 -0.1871 131.2681
v  182.7935 -0.1871 105.2026
v  212.1051 96.7958 -10.6953
v  222.6784 100.8291 -13.9055
v  212.9568 92.8140 -20.8123
v  218.8229 85.3468 -8.9223
v  170.0292 21.6614 13.2786
v  192.8614 56.2087 0.2459
v  174.2255 20.9987 -11.4002
v  217.4089 55.2293 -13.1859
v  209.7405 58.8797 4.0653
v  202.1081 41.6166 11.3800
v  198.4602 56.0158 -19.6392
v  215.2442 24.0722 -3.8330
v  184.7672 20.3361 -22.5360
v  201.9144 20.3361 27.3543
v  208.0380 22.2041 11.8568
v  201.6935 69.8529 19.5080
v  190.2195 20.9987 27.4774
v  166.2964 172.9791 -86.6403
v  170.4638 179.6703 -93.9399
v  162.6049 160.5921 -97.2655
v  172.5036 162.1206 -77.6679
v  145.6857 38.2454 -66.6179
v  156.2572 121.2691 -70.9224
v  153.7556 102.8820 -98.3799
v  136.3720 37.0798 -89.5542
v  171.9256 97.0190 -65.9164
v  168.4054 97.9160 -90.4724
v  170.2384 35.9141 -57.7810
v  178.5613 38.4417 -82.5125
v  170.5968 40.9694 -104.5946
v  150.4072 37.1779 -107.4611
v  94.4884 -0.1871 -146.1636
v  93.3923 -0.1871 -129.3348
v  111.7830 16.1624 -142.6297
v  129.7596 -0.1871 -112.3392
v  141.6784 -0.1871 -123.7907
v  134.4677 12.5356 -127.1859
v  119.6698 8.4947 -126.5055
v  112.6465 -0.1871 -112.1012
v  132.6317 -0.1871 -143.7470
v  116.0302 -0.1871 -153.4624
v  131.4575 12.6531 -142.8890
v  127.9461 22.4776 -136.2641
v  128.7679 23.3534 -142.7415
v  121.1531 20.8564 -141.0536
v  133.9733 20.5333 -137.6320
v  -12.3384 -0.1871 -138.0573
v  -4.6085 28.6181 -149.2309
v  -9.6632 36.7641 -177.3955
v  -30.1897 -0.1871 -164.1631
v  47.1482 -0.1871 -190.5134
v  41.6876 39.3513 -190.4164
v  57.3596 24.4791 -167.9799
v  65.8803 -0.1871 -164.7033
v  56.0422 -0.1871 -146.6533
v  29.4670 45.6386 -156.5922
v  29.5212 -0.1871 -136.4973
v  16.0139 -0.1871 -199.7859
v  -11.1827 -0.1871 -188.7293
v  0.9033 46.2016 -198.4897
v  15.9208 29.7339 -201.2496
v  15.6270 177.0563 -221.9382
v  15.6615 183.9051 -234.2720
v  8.1777 164.3776 -223.7662
v  29.4131 161.8513 -223.5370
v  29.4688 100.4393 -188.1362
v  4.0621 99.0465 -193.7671
v  49.2965 99.3077 -200.7358
v  15.7955 100.2259 -215.1595
v  45.7959 68.0359 -189.3342
v  0.6377 107.5735 -211.4383
v  -8.2001 97.2042 -198.9414
v  -10.8956 134.5973 -213.5955
v  125.7715 -0.1871 -109.4140
v  124.3863 -0.1871 -81.9619
v  184.0141 -0.1871 -72.9165
v  173.9031 -0.1871 -38.4636
v  137.5039 -0.1871 -53.8478
v  172.8779 -0.1871 -105.4709
v  152.3915 -0.1871 -121.3197
v  163.9862 -0.1871 -13.1292
v  174.2256 20.9987 -11.4002
v  184.7673 20.3361 -22.5360
v  173.5541 -0.1871 -29.3898
v  208.1129 -0.1871 17.3573
v  204.2286 -0.1871 31.8409
v  183.6098 -0.1871 34.2721
v  160.7636 -0.1871 16.6744
v  209.9670 -0.1871 -1.3584
# 230 vertices

vn 0.4369 0.8510 0.3130
vn 0.5412 0.8361 0.2266
vn -0.5079 0.4249 0.6809
vn 0.8954 0.2922 -0.4311
vn 0.8213 0.3876 0.4956
vn 0.7545 0.3723 0.5687
vn -0.2289 0.2545 0.8323
vn -0.2138 0.2843 0.8276
vn -0.8770 -0.0930 -0.5460
vn -0.7430 -0.2413 -0.6317
vn 0.2075 0.0702 -0.8638
vn -0.7913 0.0257 -0.6304
vn 1.0601 0.1926 -0.1541
vn 1.0554 0.2885 0.0055
vn 0.7591 0.4388 0.5249
vn -0.2364 0.2941 0.8205
vn -1.0961 -0.0546 -0.1014
vn -1.0851 -0.0631 0.1266
vn 0.6994 0.0828 -0.6680
vn 0.2757 0.0927 -0.8485
vn 1.0327 0.1901 -0.2418
vn -0.9096 0.0523 -0.5145
vn -1.0946 0.0120 0.0851
vn -0.8734 0.0324 0.5239
vn -0.5766 0.2678 0.7062
vn 0.0735 0.3269 0.8361
vn -0.3048 0.3856 0.7741
vn -0.8302 0.3103 0.4989
vn 0.2785 0.0327 -0.8513
vn 0.1296 0.0085 -0.8771
vn 0.6830 0.1024 -0.6769
vn 0.6623 0.1175 -0.6884
vn 0.8598 0.3471 0.4767
vn 1.0545 0.2882 0.0590
vn 1.0651 0.2574 0.0345
vn 0.8835 0.3523 0.4439
vn -0.8265 0.0411 -0.5998
vn -1.0797 0.2000 0.0048
vn -1.0875 0.0770 0.1091
vn -0.9234 -0.0604 -0.4975
vn -1.0015 0.1318 0.3332
vn 0.9189 0.2146 0.4674
vn 1.0516 0.2064 -0.1741
vn 1.0492 0.2267 0.2024
vn 0.7458 0.1887 0.6438
vn 1.0893 0.1252 -0.0596
vn 1.0026 0.0986 -0.3398
vn 1.0434 0.0948 -0.2545
vn 1.0757 0.1248 0.1785
vn -1.0826 -0.0430 0.1436
vn -1.0778 -0.0366 -0.2029
vn -1.0958 -0.0202 -0.1154
vn -0.9894 -0.0250 0.3722
vn 0.6029 0.2023 0.7303
vn 0.9136 0.1071 0.5029
vn 0.7994 0.0511 -0.5938
vn -1.0906 -0.0737 -0.1316
vn 0.9671 0.0859 -0.4009
vn 1.0303 0.0563 -0.2926
vn -0.4980 0.2242 0.7558
vn 1.0605 0.0940 -0.2080
vn -0.9303 0.0156 -0.4917
vn -0.7778 -0.0244 -0.6412
vn -1.0006 -0.0615 -0.3857
vn -1.0484 0.0203 -0.2922
vn 1.0310 0.0374 -0.2934
vn 0.6340 0.1485 0.7238
vn -0.0943 0.0718 0.8783
vn -1.0017 -0.0307 0.3507
vn -1.0669 -0.0475 0.1999
vn 0.7175 0.0883 0.6807
vn 1.0791 0.1280 0.1611
vn -0.9949 -0.0390 0.3620
vn 0.9924 0.1189 -0.3531
vn -0.9409 -0.0279 -0.4777
vn -0.7879 -0.0724 -0.6302
vn 1.0294 0.1368 -0.2743
vn 0.9063 0.1207 -0.4765
vn 0.9338 0.1410 -0.4371
vn 0.9926 0.1598 -0.3406
vn -1.0788 -0.0036 0.1629
vn -1.0154 0.0146 0.3264
vn -0.9964 0.0004 0.3610
vn -1.0722 -0.0078 0.1866
vn 0.6549 0.1923 0.7035
vn 1.0886 0.1484 0.0682
vn 1.0845 0.1543 -0.0618
vn 0.7510 0.1823 0.6414
vn -1.0546 0.0145 -0.2766
vn -0.9341 0.0025 -0.4872
vn -0.1037 0.1309 0.8721
vn -0.1055 0.1304 0.8720
vn -0.7331 0.0489 -0.6732
vn -0.5088 0.0170 -0.7946
vn 0.9388 0.4047 0.3120
vn 1.0314 0.3511 0.0534
vn 1.0029 0.4052 0.0983
vn 0.0560 0.1043 -0.8786
vn -0.7895 0.0987 -0.6261
vn -1.0831 0.0864 -0.1659
vn 0.9384 0.2073 -0.4102
vn 0.8810 0.2001 -0.4862
vn 0.7617 0.1819 -0.6059
vn 0.8701 0.1355 -0.5148
vn -1.0216 0.0726 0.3082
vn -0.7694 0.1793 0.6002
vn -0.7501 0.0632 0.6331
vn -1.0785 0.0534 0.1581
vn -0.5428 0.1689 0.7464
vn 0.2505 0.6713 -0.6202
vn 0.6899 0.6313 -0.3933
vn 1.0079 0.4035 -0.0143
vn -0.4912 0.4518 -0.6933
vn -0.9590 0.0009 0.4196
vn -0.8528 0.0079 0.5458
vn -1.0541 0.0181 0.2398
vn -1.0995 -0.0284 -0.0790
vn 0.8630 0.0626 -0.5328
vn 0.9968 0.0378 -0.3588
vn 1.0864 0.1031 -0.1004
vn 1.0658 0.1159 -0.1825
vn -0.6482 -0.0019 0.7046
vn -0.7237 0.0183 0.6548
vn 0.5595 0.0693 -0.7505
vn 0.8707 0.1362 -0.5139
vn 0.3315 0.5313 -0.6954
vn 0.7602 0.4931 -0.4561
vn 1.0541 0.2903 -0.0149
vn -0.5199 0.3290 -0.7339
vn 0.7800 0.1559 -0.5964
vn 0.7461 0.1566 -0.6236
vn 1.0505 0.1174 -0.2287
vn 1.0917 0.1085 0.0971
vn -0.8544 -0.0332 0.5435
vn -0.8881 -0.0850 0.5034
vn -1.0523 0.0324 0.2436
vn -0.8302 0.0066 0.5677
vn 0.3710 0.1338 -0.8188
vn 0.5728 0.1715 -0.7310
vn 0.8529 0.1693 -0.5254
vn 1.0499 0.1406 -0.2209
vn -0.6627 -0.0272 0.6954
vn -0.4084 -0.0515 0.8139
vn -1.0834 0.0673 -0.1722
vn -1.0946 0.0538 0.0744
vn 0.1818 0.1643 -0.8580
vn -0.7584 0.0172 0.6289
vn -0.4784 0.0091 0.7892
vn 0.8294 0.0356 0.5974
vn 1.0845 0.1787 0.0030
vn 1.0266 0.1314 -0.2827
vn 1.0630 0.2641 0.0396
vn 0.7832 0.3377 0.5609
vn -1.0898 0.0386 0.1099
vn -1.0760 0.0198 0.1727
vn -1.0853 0.0773 -0.1593
vn -1.0915 0.0899 -0.1152
vn 0.7876 0.1394 -0.5931
vn 0.6202 0.1597 -0.7072
vn 0.5962 0.1429 -0.7234
vn 0.7951 0.1378 -0.5869
vn -0.8551 0.0242 0.5432
vn -0.3544 0.1297 0.8243
vn -0.4625 0.0271 0.7952
vn -0.7705 -0.0243 0.6192
vn 0.0805 0.1339 0.8766
vn 0.4284 0.2738 -0.7714
vn 0.1012 0.2978 -0.8396
vn 0.6946 0.2290 -0.6446
vn -0.5996 0.2547 -0.7189
vn -0.3459 0.2387 -0.8201
vn -0.2086 0.2175 -0.8517
vn 0.6874 0.1498 -0.6672
vn 0.6653 0.1582 -0.6802
vn -0.1022 -0.0992 0.8755
vn -0.6620 -0.1026 0.6904
vn 0.1080 -0.1172 0.8771
vn -1.0855 0.1364 0.0774
vn -0.9654 0.2402 -0.3883
vn -1.0908 0.0829 -0.1248
vn -0.2894 0.2708 -0.8254
vn 0.7217 0.1789 -0.6375
vn -0.1897 -0.0507 0.8678
vn 0.1130 -0.0028 0.8829
vn 1.0332 -0.0476 0.3246
vn 1.0717 -0.0392 0.2242
vn 1.0871 -0.0484 0.1606
vn 0.9797 -0.0828 0.4170
vn 0.7751 0.1037 -0.6091
vn 0.8097 0.1323 -0.5749
vn -0.6082 -0.0649 0.7254
vn -0.7545 -0.0377 0.6312
vn -0.6493 -0.0149 0.7039
vn -0.8149 0.1249 -0.6007
vn -0.7357 -0.0333 0.6457
vn 0.4977 -0.0539 0.7977
vn 0.7347 0.1421 -0.6350
vn -1.0635 0.1251 -0.2246
vn -1.0988 0.0723 0.0121
vn -0.8769 -0.0869 0.5154
vn 0.7436 0.1406 -0.6285
vn 0.5168 0.1436 -0.7625
vn 0.6853 0.1517 -0.6682
vn 0.7322 0.1376 -0.6376
vn -0.7071 -0.0274 0.6663
vn -0.6898 -0.0500 0.6770
vn -0.8769 0.0029 0.5210
vn -0.8032 0.0167 0.5919
vn -0.7774 0.2543 -0.6001
vn -1.0606 0.2373 -0.1384
vn 0.2790 0.2276 -0.8277
vn 0.1128 0.1427 -0.8698
vn -0.0238 -0.0423 0.8841
vn 0.9338 0.0251 0.4870
vn 0.9317 -0.0006 0.4902
vn -0.1754 -0.1062 0.8661
vn 1.1009 0.0094 -0.0259
vn 1.0756 0.0454 0.2092
vn -1.0800 0.2005 -0.0148
vn -1.0805 0.1865 -0.0800
vn -0.4020 0.6718 -0.5782
vn -0.7156 0.6515 -0.3606
vn 0.7259 0.1570 -0.6388
vn -0.9822 0.2185 0.3350
vn -0.8685 0.2294 -0.5218
vn -0.1908 0.2228 -0.8530
vn 0.3223 0.1759 -0.8266
vn -0.8365 0.2667 -0.5413
vn 0.8996 -0.1117 0.5184
vn 0.2278 -0.1078 0.8653
vn 0.1942 -0.1472 0.8654
vn 0.7556 -0.1258 0.6488
vn -1.0354 0.1365 0.2603
vn -1.0926 0.1296 0.0090
vn 0.7393 0.0569 -0.6417
vn 1.0817 -0.1125 -0.1195
vn -0.1135 0.1565 -0.8719
vn -0.8636 0.1210 0.5244
vn -0.7869 0.2561 -0.5914
vn 0.4287 0.1286 -0.8002
vn 1.0933 -0.0608 -0.0810
vn 1.0793 -0.0703 0.1889
vn 1.0960 -0.0564 -0.0620
vn 1.0213 -0.0312 -0.3140
vn 1.0743 -0.0739 -0.1683
vn -0.1158 0.1523 -0.8724
vn -1.0796 0.1497 0.1014
vn -0.0826 -0.0768 0.8790
vn 0.4796 -0.0577 0.8044
vn -1.0849 0.1556 0.0567
vn -0.1573 -0.0226 0.8734
vn 0.6388 0.1008 -0.7047
vn -0.4845 -0.0324 0.7862
vn -0.1281 0.2713 -0.8484
vn 0.2390 0.2751 -0.8252
vn 0.5392 0.2157 -0.7387
vn 0.5208 0.2242 -0.7455
vn -0.0808 0.0466 0.8808
vn -0.1497 0.0157 0.8746
vn -0.5636 0.0464 0.7498
vn -0.5100 0.0711 0.7734
vn -1.0859 0.1541 0.0489
vn -1.0624 0.1844 0.1519
vn -0.9829 0.2652 -0.3427
vn -0.9349 0.2032 -0.4502
vn 0.8471 -0.0128 0.5819
vn 1.0961 0.0176 -0.0742
vn 1.0781 0.0192 -0.1648
vn 0.7488 -0.0247 0.6630
vn -1.0140 0.1069 0.3161
vn 1.0536 0.0673 -0.2348
vn 1.0046 0.0488 -0.3441
vn -0.7411 0.4601 0.5003
vn -0.7132 0.4485 0.5333
vn -0.8972 0.4524 -0.3392
vn 0.0121 0.0911 0.8820
vn -1.0513 0.1505 0.2120
vn -0.9257 0.1490 0.4458
vn -1.0668 0.1375 -0.2064
vn 0.7798 -0.0580 -0.6099
vn 0.8761 -0.0211 -0.5214
vn 1.0997 -0.0284 0.0773
vn 1.0962 -0.0406 0.1067
vn 1.0894 -0.0419 0.1500
vn -0.5474 0.1382 0.7490
vn -0.5604 0.1397 0.7424
vn -1.0099 0.1076 0.3239
vn -1.0920 0.0959 0.0677
vn -1.0923 0.1286 0.0186
vn 0.7695 -0.0198 -0.6201
vn 0.5921 -0.0523 -0.7349
vn 0.8389 -0.0263 -0.5591
vn 0.7265 -0.0309 -0.6524
vn 1.0626 0.0239 0.2540
vn -0.1518 0.0750 0.8719
vn 1.0880 0.0263 -0.1214
vn -1.0337 0.1424 0.2622
vn -0.2434 0.0485 0.8583
vn 1.0913 0.0831 0.1213
vn -0.9476 0.1170 -0.4576
vn -0.6400 0.2829 0.6646
vn -0.9408 0.2063 0.4070
vn -1.0835 0.1071 0.1139
vn 0.0439 0.3072 0.8428
vn -0.8019 0.0473 0.5918
vn -0.7947 0.0529 0.5977
vn -1.0631 0.0332 0.2135
vn -1.0991 0.0568 0.0278
vn 0.9478 -0.0093 -0.4352
vn 1.0264 -0.0084 -0.3047
vn 1.0377 0.0140 -0.2802
vn 0.8953 0.0133 -0.5005
vn -0.4710 0.0228 0.7920
vn -0.5836 0.0336 0.7402
vn -0.9413 0.0575 0.4412
vn -1.0247 0.0323 0.3069
vn 0.6968 -0.0114 -0.6737
vn 0.6864 -0.0026 -0.6806
vn 1.1023 0.0045 0.0039
vn 1.0787 0.0140 -0.1630
vn -0.7288 0.0796 0.6476
vn 0.6948 0.0542 -0.6734
vn 0.4099 0.0665 -0.8126
vn -1.0292 0.0418 -0.3337
vn -1.0418 0.2453 0.1729
vn -0.9118 0.2997 0.4047
vn -0.8332 0.2800 0.5092
vn 0.9036 0.2069 0.4894
vn 1.0857 0.1537 0.0906
vn 1.0534 0.1294 -0.2158
vn -0.6089 0.3189 0.6711
vn -0.4733 0.4250 0.6972
vn -0.3098 0.4124 0.7618
vn -0.5300 0.2969 0.7211
vn 0.8120 0.0813 -0.5801
vn 0.2464 0.1973 -0.8409
vn 0.3025 0.1049 -0.8411
vn 0.6308 0.0490 -0.7136
vn -0.2305 0.1956 -0.8526
vn 0.4262 0.8752 0.2653
vn -0.4294 0.8238 0.3571
vn -0.8266 0.5516 0.3088
vn 0.8877 0.5854 0.0996
vn 0.7950 0.0049 -0.5992
vn 0.4737 0.0168 -0.7910
vn 0.9050 0.0213 -0.4891
vn 1.0196 -0.0406 -0.3166
vn -0.4282 0.2274 0.7831
vn -0.8333 0.2670 0.5144
vn -0.7903 0.2030 0.5765
vn -0.5944 0.2498 0.7016
vn 0.0639 0.0117 -0.8829
vn 0.3079 0.0788 -0.8419
vn 0.1838 0.1892 0.8603
vn -0.5312 0.2981 0.7201
vn -0.6376 0.1354 0.7010
vn -0.6496 0.1097 0.6972
vn -0.9614 0.0991 0.4071
vn -0.8916 0.1368 0.4905
vn 0.7443 0.0251 -0.6395
vn 0.7558 0.0085 -0.6311
vn 0.9133 0.0280 -0.4789
vn 0.8894 0.0422 -0.5059
vn 0.8073 0.1586 0.6011
vn 0.9492 0.1920 0.4342
vn 0.1610 0.1713 0.8657
vn 0.0046 0.1457 0.8762
vn 0.1300 -0.0152 -0.8769
vn -0.7908 0.0217 -0.6309
vn -0.9883 0.0256 -0.4096
vn 0.2593 -0.0149 -0.8560
vn 1.0824 0.1096 0.1570
vn -1.0304 0.0731 -0.3266
vn -1.0980 0.0468 -0.0870
vn 0.2458 0.5304 0.7287
vn -0.2334 0.4790 0.7502
vn -0.9885 0.1104 0.3619
vn 1.0704 0.2190 0.1049
vn 0.1292 0.1668 0.8693
vn -0.5432 0.1318 0.7520
vn -0.8062 0.1111 0.5814
vn 0.3217 0.1962 0.8348
vn 0.1948 -0.0721 -0.8658
vn 0.6159 -0.0536 -0.7219
vn 0.6273 -0.0736 -0.7140
vn 0.0622 -0.0698 -0.8809
vn 0.6536 -0.0776 -0.6980
vn 1.0865 0.1265 0.1191
vn 0.6823 0.1314 0.6980
vn -0.9966 0.0400 0.3590
vn -0.8704 -0.1250 -0.5478
vn -0.6567 0.0783 0.6961
vn 1.0599 0.0986 -0.2083
vn -0.3049 0.1532 0.8347
vn -0.8554 0.0735 0.5395
vn -0.8138 -0.0670 -0.6091
vn -0.2497 -0.0622 -0.8653
vn -0.8050 -0.0603 -0.6171
vn -1.0868 -0.0321 -0.1656
vn -0.9502 -0.0821 -0.4602
vn -0.6560 0.0762 0.6967
vn 0.9205 0.1586 0.4833
vn 0.5078 -0.0302 -0.7764
vn 0.7278 -0.0393 -0.6512
vn 0.7672 0.1721 0.6313
vn 0.7671 -0.0123 -0.6222
vn -1.0017 0.0599 0.3480
vn 0.8789 -0.0189 -0.5185
vn -1.0805 0.0846 0.1398
vn -1.0211 0.0727 0.3093
vn -1.0859 0.1331 0.0777
vn -1.0141 0.1811 -0.3264
vn 1.0689 0.0405 -0.1945
vn 1.0535 0.0306 -0.2406
vn 1.1004 0.0600 0.0128
vn 1.0985 0.0653 -0.0281
vn -0.7980 0.0912 0.5913
vn -0.6260 0.1087 0.7113
vn -0.5762 0.0980 0.7396
vn -0.8121 0.0884 0.5792
vn 0.8775 0.0391 -0.5192
vn 0.2021 0.1143 -0.8610
vn 0.4093 0.0228 -0.8147
vn 0.7815 0.0112 -0.6105
vn -0.4039 0.1192 -0.8245
vn -1.0894 0.1504 -0.0457
vn -1.0784 0.1379 -0.1571
vn -0.9633 0.1493 -0.4271
vn -1.0613 0.1928 -0.1872
vn 1.0933 0.0247 -0.0918
vn 1.1017 -0.0150 0.0489
vn 1.1016 0.0286 0.0435
vn 1.0984 0.0431 -0.0459
vn -0.4639 0.0946 0.7906
vn -0.5225 0.0894 0.7664
vn -0.9655 0.1099 0.3988
vn -0.9682 0.0947 0.3977
vn 0.9726 -0.0138 -0.3993
vn 0.7725 -0.0151 -0.6177
vn 0.7456 -0.0347 -0.6382
vn 1.0109 -0.0506 -0.3322
vn -0.1222 0.0895 0.8743
vn -0.2386 0.0678 0.8582
# 443 vertex normals

vt 0.5000 0.0000 0.0000
vt 0.5000 1.0000 0.0000
vt 0.0000 0.5000 0.0000
vt 1.0000 0.5000 0.0000
vt 0.5000 0.5000 0.0000
vt 0.5000 0.6857 0.0000
vt 0.6875 0.8359 0.0000
vt 0.2500 0.5625 0.0000
vt 0.0000 1.0000 0.0000
vt 0.0000 0.7500 0.0000
vt 0.5000 0.7053 0.0000
vt 1.0000 0.7500 0.0000
vt 1.0000 1.0000 0.0000
vt 0.2500 0.5000 0.0000
vt 0.8750 0.5938 0.0000
vt 0.0000 0.6250 0.0000
vt 0.0000 0.0000 0.0000
vt 0.2500 0.0000 0.0000
vt 1.0000 0.0000 0.0000
vt 0.7500 0.0000 0.0000
vt 0.0000 0.8750 0.0000
vt 1.0000 0.6250 0.0000
vt 1.0000 0.8750 0.0000
vt 0.5000 0.9375 0.0000
vt 0.5000 0.8125 0.0000
vt 0.5000 0.7500 0.0000
vt 0.0000 0.9375 0.0000
vt 1.0000 0.9375 0.0000
vt 0.7500 0.5625 0.0000
vt 0.7500 0.5000 0.0000
vt 0.4531 0.6543 0.0000
vt 0.5000 0.5929 0.0000
vt 0.4167 0.5684 0.0000
vt 0.5000 0.8429 0.0000
vt 0.3438 0.7383 0.0000
vt 0.6250 0.6714 0.0000
vt 0.8750 0.7188 0.0000
vt 0.3642 0.8738 0.0000
vt 0.1821 0.7494 0.0000
vt 0.3750 0.6026 0.0000
vt 0.8750 0.5000 0.0000
vt 0.1667 0.8438 0.0000
vt 0.7500 0.8125 0.0000
vt 0.1667 0.5417 0.0000
vt 0.8333 0.5417 0.0000
# 45 texture coords

g Box4182
usemtl wire_115115115
s 4
f 1/1/1 2/2/2 3/3/3 
f 1/1/1 4/4/4 2/2/2 
s 8
f 5/5/5 6/6/6 7/7/7 8/8/8 
s 32
f 2/2/9 4/9/10 9/10/11 10/11/12 
s 8
f 9/12/13 6/6/6 5/5/5 11/4/14 
f 1/2/15 3/9/16 7/7/7 6/6/6 
s 32
f 3/13/17 2/2/9 10/11/12 7/7/18 
f 9/10/11 11/3/19 12/14/20 10/11/12 
s 8
f 4/13/21 1/2/15 6/6/6 9/12/13 
s 32
f 10/11/12 13/5/22 14/15/23 7/7/18 
f 12/14/20 13/5/22 10/11/12 
s 8
f 7/7/7 14/16/24 8/8/8 
f 15/17/25 16/18/26 8/8/27 14/16/28 
s 32
f 17/18/29 12/14/30 11/3/31 18/17/32 
s 8
f 19/1/33 18/19/34 11/4/35 5/5/36 
s 32
f 20/1/37 21/20/38 14/15/39 13/5/40 
f 20/1/37 13/5/40 12/14/30 17/18/29 
f 21/20/38 15/19/41 14/15/39 
s 8
f 16/18/26 19/1/33 5/5/36 8/8/27 
s 4
f 22/1/42 23/3/43 24/2/44 
f 22/1/42 24/2/44 25/4/45 
s 8
f 26/5/46 27/8/47 28/21/48 29/6/49 
s 32
f 25/9/50 24/2/51 30/11/52 31/10/53 
s 8
f 32/22/54 29/6/49 31/12/55 
s 64
f 28/23/56 33/21/56 34/24/56 
s off
f 33/23/57 35/25/57 36/26/57 
s 8
f 37/16/58 36/26/59 28/21/48 27/8/47 
s off
f 28/23/60 35/25/60 33/21/60 
s 8
f 29/6/49 28/21/48 34/27/61 
s 32
f 33/23/62 30/11/52 34/28/63 
f 38/29/64 30/11/52 33/23/62 36/26/65 
s off
f 28/21/66 36/26/66 35/25/66 
s 8
f 39/30/67 29/6/49 32/22/54 40/4/68 
s 32
f 32/16/69 30/11/52 41/5/70 
f 31/10/53 30/11/52 32/16/69 
s 8
f 25/13/71 31/12/55 29/6/49 22/2/72 
s 32
f 32/16/69 41/5/70 40/3/73 
s 8
f 29/6/49 39/30/67 26/5/46 
s 32
f 30/11/52 38/29/64 41/5/70 
s 8
f 22/2/72 29/6/49 34/27/61 23/9/74 
s 32
f 23/13/75 34/28/63 30/11/52 24/2/51 
f 38/29/64 36/26/65 37/22/76 
s 8
f 42/18/77 43/17/78 37/16/79 27/8/80 
s 32
f 44/1/81 45/17/82 40/3/83 41/5/84 
s 8
f 46/20/85 47/1/86 26/5/87 39/30/88 
s 32
f 44/1/81 41/5/84 38/29/89 48/20/90 
s 8
f 46/20/85 39/30/88 40/4/91 45/19/92 
f 42/18/77 27/8/80 26/5/87 47/1/86 
s 32
f 48/20/90 38/29/89 37/22/93 43/19/94 
s 8
f 49/17/95 50/18/96 51/31/97 
s 32
f 52/17/98 53/18/99 54/16/100 
s 8
f 55/32/101 56/1/102 52/19/103 54/22/104 
s 32
f 57/1/105 58/20/106 51/31/107 59/33/108 
f 58/20/106 49/19/109 51/31/107 
s 8
f 50/18/96 56/1/102 55/32/101 51/31/97 
s 32
f 53/18/99 57/1/105 59/33/108 54/16/100 
s 4
f 60/1/110 61/2/111 62/3/112 
f 60/1/110 63/4/113 61/2/111 
s 32
f 59/33/114 61/2/115 63/9/116 64/16/117 
s 8
f 60/2/118 62/9/119 51/31/120 55/32/121 
s 32
f 62/13/122 61/2/115 59/33/114 51/31/123 
s 8
f 63/13/124 60/2/118 55/32/121 64/22/125 
s 4
f 65/1/126 66/2/127 67/3/128 
f 65/1/126 68/4/129 66/2/127 
s 8
f 69/5/130 70/6/131 71/7/132 72/8/133 
s 32
f 66/2/134 68/9/135 73/10/136 74/11/137 
s 8
f 73/12/138 70/6/131 69/5/130 75/4/139 
f 65/2/140 67/9/141 71/7/132 70/6/131 
s 32
f 67/13/142 66/2/134 74/11/137 71/7/143 
f 73/10/136 75/3/144 76/14/145 74/11/137 
s 8
f 68/13/146 65/2/140 70/6/131 73/12/138 
s 32
f 74/11/137 77/5/147 78/15/148 71/7/143 
f 76/14/145 77/5/147 74/11/137 
s 8
f 71/7/132 78/16/149 72/8/133 
f 79/17/150 80/18/151 72/8/152 78/16/153 
s 32
f 81/18/154 76/14/155 75/3/156 82/17/157 
s 8
f 83/1/158 82/19/159 75/4/160 69/5/161 
s 32
f 84/1/162 85/20/163 78/15/164 77/5/165 
f 84/1/162 77/5/165 76/14/155 81/18/154 
f 85/20/163 79/19/166 78/15/164 
s 8
f 80/18/151 83/1/158 69/5/161 72/8/152 
s 4
f 86/1/167 87/2/168 88/3/169 
f 86/1/167 89/4/170 87/2/168 
s 8
f 90/5/171 86/34/172 91/35/173 92/8/174 
s 32
f 87/2/175 89/9/176 93/11/177 
s 8
f 94/12/178 86/34/172 95/36/179 96/22/180 
s 64
f 91/23/181 88/2/181 97/21/181 
s 8
f 86/34/172 88/9/182 91/35/173 
s 32
f 97/23/183 88/13/184 93/11/177 
f 98/29/185 99/22/186 100/12/187 101/37/188 
s 8
f 97/38/189 100/39/190 91/35/173 
s 32
f 94/10/191 96/16/192 102/40/193 93/11/177 
s 8
f 94/12/178 89/13/194 86/34/172 
s 32
f 97/23/183 93/11/177 101/37/188 
f 103/14/195 104/5/196 102/40/193 
s 8
f 86/34/172 90/5/171 95/36/179 
s 32
f 89/9/176 94/10/191 93/11/177 
f 88/13/184 87/2/175 93/11/177 
f 100/12/187 97/23/183 101/37/188 
s 8
f 99/16/197 92/8/174 91/35/173 100/39/190 
s 32
f 93/11/177 104/5/196 98/29/185 101/37/188 
s 8
f 95/36/179 105/30/198 106/4/199 96/22/180 
s 32
f 96/16/192 106/3/200 103/14/195 102/40/193 
s 8
f 90/5/171 105/30/198 95/36/179 
s 32
f 104/5/196 93/11/177 102/40/193 
s 8
f 107/17/201 108/18/202 92/8/203 99/16/204 
s 32
f 109/18/205 103/14/206 106/3/207 110/17/208 
s 8
f 111/20/209 105/30/210 90/5/211 112/1/212 
s 32
f 113/1/213 114/20/214 98/29/215 104/5/216 
f 113/1/213 104/5/216 103/14/206 109/18/205 
f 114/20/214 107/19/217 99/22/218 98/29/215 
s 8
f 108/18/202 112/1/212 90/5/211 92/8/203 
f 110/19/219 106/4/220 105/30/210 111/20/209 
s 4
f 115/1/221 116/2/222 117/3/223 
f 115/1/221 118/4/224 116/2/222 
s 8
f 119/6/225 120/21/226 121/8/227 122/5/228 
s 32
f 116/2/229 118/9/230 123/10/231 124/11/232 
s 8
f 125/22/233 123/12/234 119/6/225 
s 64
f 120/23/235 117/2/235 126/21/235 
s off
f 126/23/236 127/26/236 128/25/236 
f 129/16/237 120/21/237 127/26/237 
f 120/23/238 126/21/238 128/25/238 
s 8
f 115/2/239 117/9/240 120/21/226 119/6/225 
s 32
f 117/13/241 116/2/229 124/11/232 126/23/242 
f 126/23/242 124/11/232 130/29/243 129/22/244 
s off
f 126/23/245 129/22/245 127/26/245 
f 120/21/246 128/25/246 127/26/246 
s 8
f 119/6/225 131/41/247 125/22/233 
s 32
f 125/16/248 132/5/249 124/11/232 
f 123/10/231 125/16/248 124/11/232 
s 8
f 118/13/250 115/2/239 119/6/225 123/12/234 
s 32
f 125/16/248 133/14/251 132/5/249 
s 8
f 120/21/226 129/16/252 121/8/227 
f 119/6/225 122/5/228 131/41/247 
s 32
f 125/16/248 131/3/253 133/14/251 
f 124/11/232 132/5/249 130/29/243 
s 8
f 134/18/254 121/8/255 129/16/256 135/17/257 
s 32
f 136/18/258 133/14/259 131/3/260 137/17/261 
s 8
f 138/20/262 131/41/263 122/5/264 139/1/265 
s 32
f 140/1/266 141/20/267 130/29/268 132/5/269 
s 8
f 134/18/254 139/1/265 122/5/264 121/8/255 
f 138/20/262 137/19/270 131/41/263 
s 32
f 140/1/266 132/5/269 133/14/259 136/18/258 
f 141/20/267 135/19/271 129/22/272 130/29/268 
s 4
f 142/1/273 143/2/274 144/3/275 
f 142/1/273 145/4/276 143/2/274 
s 8
f 146/5/277 147/6/278 148/8/279 
s 32
f 149/11/280 143/2/281 145/9/282 150/10/283 
f 149/11/280 150/10/283 149/11/284 
s 8
f 151/22/285 150/12/286 147/6/278 
f 142/2/287 144/9/288 152/42/289 147/6/278 
s 32
f 144/13/290 143/2/281 149/11/280 152/43/291 
f 152/43/291 149/11/280 153/5/292 154/22/293 
s 8
f 147/6/278 146/5/277 151/22/285 
s 32
f 153/5/292 149/11/280 149/11/284 151/16/294 
f 150/10/283 151/16/294 149/11/284 
s 8
f 145/13/295 142/2/287 147/6/278 150/12/286 
s off
f 155/3/296 156/14/296 151/16/296 157/44/296 
f 146/5/297 158/30/297 157/45/297 151/22/297 
f 158/30/298 155/4/298 157/45/298 
f 156/14/299 153/5/299 151/16/299 
s 8
f 152/42/289 154/16/300 148/8/279 147/6/278 
s 4
f 159/1/301 160/2/302 161/3/303 
f 159/1/301 162/4/304 160/2/302 
s 8
f 163/5/305 164/6/306 165/7/307 166/8/308 
s 32
f 160/2/309 162/9/310 167/10/311 168/11/312 
s 8
f 167/12/313 164/6/306 163/5/305 169/4/314 
f 159/2/315 161/9/316 165/7/307 164/6/306 
s 32
f 161/13/317 160/2/309 168/11/312 165/7/318 
f 167/10/311 169/3/319 170/14/320 168/11/312 
s 8
f 162/13/321 159/2/315 164/6/306 167/12/313 
s 32
f 168/11/312 171/5/322 172/15/323 165/7/318 
f 170/14/320 171/5/322 168/11/312 
s 8
f 165/7/307 172/16/324 166/8/308 
f 173/17/325 174/18/326 175/31/327 
s 32
f 176/17/328 177/18/329 178/16/330 
s 8
f 179/32/331 180/1/332 176/19/333 178/22/334 
s 32
f 181/1/335 182/20/336 175/31/337 183/33/338 
f 182/20/336 173/19/339 175/31/337 
s 8
f 174/18/326 180/1/332 179/32/331 175/31/327 
s 32
f 177/18/329 181/1/335 183/33/338 178/16/330 
s 4
f 184/1/340 185/2/341 186/3/342 
f 184/1/340 187/4/343 185/2/341 
s 32
f 183/33/344 185/2/345 187/9/346 178/16/347 
s 8
f 184/2/348 186/9/349 175/31/350 179/32/351 
s 32
f 186/13/352 185/2/345 183/33/344 175/31/353 
s 8
f 187/13/354 184/2/348 179/32/351 178/22/355 
f 188/18/356 189/8/357 190/16/358 191/17/359 
s 32
f 192/18/360 193/14/361 194/3/362 195/17/363 
s 8
f 196/20/364 194/41/365 197/5/366 198/1/367 
s 32
f 199/1/368 200/20/369 201/29/370 202/5/371 
s 8
f 188/18/356 198/1/367 197/5/366 189/8/357 
f 196/20/364 195/19/372 194/41/365 
s 32
f 199/1/368 202/5/371 193/14/361 192/18/360 
f 200/20/369 191/19/373 190/22/374 201/29/370 
s 4
f 203/1/375 204/2/376 205/3/377 
f 203/1/375 206/4/378 204/2/376 
s 8
f 207/6/379 208/21/380 189/8/381 197/5/382 
s 32
f 204/2/383 206/9/384 209/10/385 210/11/386 
f 210/11/386 209/10/385 210/11/387 
s 8
f 211/22/388 209/12/389 207/6/379 
s 64
f 208/23/390 205/2/390 212/21/390 
s off
f 212/23/391 213/26/391 214/25/391 
f 190/16/392 208/21/392 213/26/392 
f 208/23/393 212/21/393 214/25/393 
s 8
f 203/2/394 205/9/395 208/21/380 207/6/379 
s 32
f 205/13/396 204/2/383 210/11/386 212/23/397 
f 212/23/397 210/11/386 201/29/398 190/22/399 
s off
f 212/23/400 190/22/400 213/26/400 
f 208/21/401 214/25/401 213/26/401 
s 8
f 207/6/379 194/41/402 211/22/388 
s 32
f 202/5/403 210/11/386 210/11/387 211/16/404 
f 209/10/385 211/16/404 210/11/387 
s 8
f 206/13/405 203/2/394 207/6/379 209/12/389 
s 32
f 211/16/404 193/14/406 202/5/403 
s 8
f 208/21/380 190/16/407 189/8/381 
f 207/6/379 197/5/382 194/41/402 
s 32
f 211/16/404 194/3/408 193/14/406 
f 210/11/386 202/5/403 201/29/398 
s 8
f 215/17/409 216/18/410 166/8/411 172/16/412 
s 32
f 217/18/413 170/14/414 169/3/415 218/17/416 
s 8
f 219/1/417 218/19/418 169/4/419 163/5/420 
s 32
f 220/1/421 221/20/422 172/15/423 171/5/424 
f 220/1/421 171/5/424 170/14/414 217/18/413 
f 221/20/422 215/19/425 172/15/423 
s 8
f 216/18/410 219/1/417 163/5/420 166/8/411 
f 222/18/426 223/8/427 224/16/428 225/17/429 
s 32
f 226/18/430 156/14/431 155/3/432 227/17/433 
s 8
f 228/20/434 158/30/435 146/5/436 229/1/437 
s 32
f 230/1/438 225/19/439 224/22/440 153/5/441 
s 8
f 227/19/442 155/4/443 158/30/435 228/20/434 
s 32
f 230/1/438 153/5/441 156/14/431 226/18/430 
s 8
f 222/18/426 229/1/437 146/5/436 223/8/427 
# 132 polygons - 101 triangles

