# 3ds Max Wavefront OBJ Exporter v0.97b - (c)2007 guruware
# File Created: 28.07.2017 11:20:24

mtllib bingci_001.mtl

#
# object Object001
#

v  0.8977 0.4563 -0.4430
v  0.9277 0.5506 -0.4075
v  0.9409 0.4074 -0.3469
v  0.8097 0.4832 -0.4110
v  0.7424 0.1319 -0.4219
v  0.8773 0.1901 -0.2868
v  0.6678 -0.3449 -0.1925
v  0.5003 -0.2965 -0.3300
v  0.5629 0.2420 -0.3665
v  0.7102 0.2771 -0.2154
v  0.3064 -0.0237 -0.3445
v  0.3898 0.1649 -0.1791
v  0.5546 0.1414 -0.0550
v  0.6770 -0.1132 -0.0563
v  0.6925 -0.4870 0.0011
v  0.5800 -0.5754 -0.1529
v  0.2423 0.0409 -0.1272
v  0.1429 -0.1599 -0.3312
v  0.3920 -0.5097 -0.2922
v  0.4396 0.0085 0.0392
v  0.6111 -0.1692 0.1010
v  0.6061 0.7185 -0.6601
v  0.6513 0.7201 -0.7293
v  0.5291 0.6538 -0.7252
v  0.6376 0.6077 -0.6207
v  0.4170 0.5179 -0.4571
v  0.3765 0.5092 -0.6420
v  0.0328 0.1601 -0.3712
v  0.1563 0.1532 -0.1946
v  0.5226 0.3083 -0.3889
v  0.4577 0.2920 -0.5836
v  0.4009 0.0205 -0.1310
v  0.4540 -0.0521 -0.3342
v  0.3529 -0.0311 -0.5099
v  0.1451 0.0542 -0.5191
v  -0.1356 -0.0324 -0.4434
v  -0.1156 0.0129 -0.2559
v  0.3910 -0.2548 -0.2147
v  0.3464 -0.1585 0.0235
v  0.0258 -0.0090 -0.0688
v  0.2610 -0.2485 -0.4327
v  0.0723 -0.1745 -0.5337
v  0.5429 0.9005 0.6423
v  0.5735 1.2646 0.9892
v  0.6641 0.8768 0.7463
v  0.4132 1.0654 0.8330
v  0.1530 0.1712 -0.0453
v  0.5712 0.5262 0.4357
v  0.3569 0.0405 0.0262
v  0.4900 0.5448 0.7506
v  0.2258 0.6506 0.6433
v  0.0803 0.4687 0.2794
v  -0.0759 0.4156 0.4534
v  0.8850 1.0072 0.8566
v  0.4105 -0.0680 0.4312
v  0.6017 0.0059 0.2339
v  0.6589 0.4037 0.4908
v  0.5959 0.4426 0.6291
v  0.1038 0.2756 0.5825
v  0.0186 0.1992 0.5679
v  0.2887 0.1059 0.6577
v  -0.1243 0.1301 0.0701
v  -0.1332 0.2414 0.3502
v  0.5259 -0.3767 0.0050
v  0.2554 -0.2598 -0.2043
v  -0.1974 -0.0643 0.4367
v  -0.4108 0.0279 0.2315
v  -0.0160 -0.1426 -0.1998
v  -0.2984 -0.0206 -0.1387
v  0.1341 -0.2074 0.5410
v  0.4196 -0.3307 0.3955
v  0.8935 0.5888 0.3446
v  1.0011 0.6554 0.3046
v  0.8251 0.5999 0.2446
v  0.9404 0.4246 0.2889
v  0.3952 0.2685 0.0672
v  -0.1200 -0.0970 -0.0893
v  0.0822 -0.2256 0.0708
v  0.4704 0.0845 0.1800
v  0.7102 -0.0582 0.1455
v  0.6185 0.2499 -0.0289
v  0.5163 -0.1957 0.0380
v  0.5252 0.3856 -0.0062
v  0.3544 0.3720 -0.0078
v  0.5531 0.5928 0.0960
v  0.0142 0.0668 -0.2044
v  0.2531 0.0902 -0.2571
v  0.3039 -0.5315 -0.0336
v  0.3116 -0.0850 -0.3236
v  0.4147 -0.2786 -0.1351
v  -0.3092 0.0318 -0.3765
v  -0.3889 -0.1882 -0.1657
v  0.3299 -0.4833 -0.3355
v  0.2575 -0.7092 -0.1241
v  0.0724 -0.6898 -0.0374
v  -0.1954 -0.4778 -0.0517
v  -0.0244 -0.0380 -0.4796
v  0.2130 -0.2135 -0.4763
v  0.1401 0.6595 -0.7504
v  0.1142 0.8372 -0.8335
v  0.1580 0.7014 -0.6513
v  0.0328 0.6058 -0.7301
v  -0.0174 -0.1516 -0.2974
v  0.1011 0.3500 -0.5655
v  0.0675 0.0032 -0.1199
v  -0.0546 0.4211 -0.6025
v  -0.0699 0.5411 -0.4531
v  -0.1733 0.1735 -0.4118
v  0.1236 0.4986 -0.4238
v  -0.2728 0.2404 -0.1735
v  0.0376 0.1260 -0.0327
v  -0.3371 -0.0318 -0.3689
v  -0.3012 0.1004 -0.2721
v  -0.0462 0.3568 -0.7925
v  -0.2448 -0.1030 -0.3805
v  0.0728 -0.0230 0.1569
v  0.0675 -0.1707 0.0396
v  -0.4208 -0.0534 -0.1488
v  -0.4612 -0.1555 -0.2509
v  -0.3141 -0.2994 -0.2782
v  -0.0525 -0.3505 -0.1681
v  -0.3441 0.0584 -0.0184
# 122 vertices

vn 0.3474 0.3629 -0.7960
vn 0.4639 0.2837 -0.7418
vn 0.7707 -0.0613 -0.3808
vn -0.1693 0.5657 -0.7991
vn 0.1413 -0.2937 -0.8604
vn 0.6369 -0.4815 -0.3563
vn 0.6939 -0.3743 -0.3467
vn 0.1113 -0.3535 -0.8522
vn -0.2721 0.8821 0.3820
vn -0.3094 0.9860 0.0391
vn 0.1623 0.8404 0.6250
vn 0.0696 0.7948 0.6564
vn -0.2478 -0.0245 -0.9249
vn -0.0754 -0.1008 -0.9335
vn 0.2098 -0.2608 -0.8440
vn 0.5997 -0.4566 -0.4392
vn 0.3629 0.5017 0.8079
vn 0.4799 0.3291 0.8161
vn -0.4606 0.8179 -0.3416
vn -0.3251 0.9726 0.0598
vn -0.3049 0.1027 -0.9049
vn 0.2284 0.7920 0.6642
vn 0.6498 0.5381 0.6209
vn 0.8591 -0.1542 0.2630
vn 0.8222 -0.1776 -0.1957
vn 0.5097 -0.4812 -0.5372
vn -0.3982 0.9284 -0.0461
vn -0.4200 0.8549 -0.3380
vn -0.0916 -0.1511 -0.9289
vn 0.1157 -0.3836 -0.8408
vn 0.1727 0.8502 0.6159
vn 0.7187 0.6690 0.4384
vn 0.8480 0.2600 0.4264
vn 0.3523 1.0792 0.1987
vn 0.2098 1.1248 0.0962
vn -0.2692 0.9930 -0.2353
vn 0.7103 0.6492 0.4708
vn -0.0237 0.9319 0.4891
vn -0.4839 0.8527 -0.0367
vn -0.4472 0.8827 -0.1476
vn -0.0568 0.9017 0.5124
vn 0.5944 -0.6140 -0.2821
vn 0.7966 -0.3366 -0.1006
vn 0.3349 -0.5310 -0.6633
vn 0.3248 -0.6148 -0.6150
vn 0.3297 0.7011 0.7126
vn 0.2065 0.8422 0.6224
vn -0.0487 0.9689 0.4256
vn -0.4366 0.8921 0.0136
vn -0.0064 -0.5371 -0.8092
vn -0.1908 -0.4567 -0.8551
vn 0.8707 -0.0687 0.2948
vn 0.7949 -0.3589 -0.0649
vn 0.4389 0.6447 0.7090
vn 0.2630 -0.5103 -0.7213
vn -0.0568 -0.1734 -0.9243
vn -0.5550 0.4060 -0.6733
vn -0.4332 0.8469 -0.3305
vn -0.3865 0.9107 0.1328
vn 0.8304 -0.2987 0.0560
vn 0.8824 -0.0430 0.2562
vn 0.1742 0.8238 0.6400
vn -0.0804 0.8914 0.5134
vn 0.3466 -0.5040 -0.6707
vn 0.0265 0.0761 -0.9294
vn -0.3002 0.2092 -0.8899
vn 0.3284 0.8668 -0.5387
vn 0.1615 0.8986 -0.5670
vn 0.5265 0.7780 -0.4725
vn -0.0867 0.8864 -0.5710
vn 0.1053 0.7089 -0.7305
vn 0.1354 0.8493 -0.6195
vn 0.5363 0.5684 -0.6013
vn 0.4783 0.5741 -0.6453
vn -0.0460 -0.4695 0.8535
vn -0.4403 -0.3780 0.7393
vn 0.0396 -0.4493 0.8642
vn -0.3722 0.9192 -0.2624
vn -0.2933 0.9092 -0.4125
vn -0.4471 0.8366 -0.3259
vn 0.0216 0.8775 -0.5986
vn 0.5542 0.6564 -0.5365
vn 0.1095 -0.3802 0.8834
vn 0.0190 0.0392 0.9337
vn 0.5565 -0.3810 0.6857
vn 0.6978 -0.4156 0.4721
vn 0.5867 -0.6112 0.4565
vn 0.4825 -0.6358 0.5724
vn 0.5999 0.3461 -0.6177
vn 0.6368 0.4268 -0.5577
vn -0.3637 -0.1653 0.8152
vn -0.6003 -0.0507 0.6352
vn -0.3110 0.0922 0.8315
vn -0.3211 0.6975 -0.6501
vn -0.3963 0.0479 0.7891
vn 0.0829 -0.4439 0.8644
vn 0.5709 0.5232 -0.5900
vn -0.2488 0.9279 -0.4239
vn -0.4774 0.8099 -0.3230
vn -0.6040 0.2408 0.5602
vn 0.5694 0.5200 -0.5927
vn 0.3650 0.6968 -0.6519
vn -0.4717 0.2083 0.7018
vn -0.4333 0.4238 0.6464
vn 0.0871 0.7933 -0.6726
vn -0.0118 1.0227 -0.3965
vn 0.0281 -0.4203 0.8740
vn 0.6539 -0.2002 0.6671
vn 0.7611 -0.4153 0.3010
vn -0.2706 0.9898 -0.2445
vn 0.1268 0.6547 0.7615
vn 0.2303 0.4388 0.8581
vn -0.1882 1.0011 0.2498
vn 0.4164 -0.2212 0.8417
vn -0.3831 0.4326 0.6821
vn -0.3196 0.5972 0.6314
vn -0.2136 -0.0363 0.8842
vn -0.2131 -0.1152 0.8839
vn 0.6179 -0.1377 -0.5806
vn 0.5466 -0.2282 -0.6276
vn 0.5111 0.2266 -0.7139
vn 0.4891 0.2748 -0.7250
vn 0.1347 -0.5982 0.7888
vn -0.0600 -0.5256 0.8306
vn -0.3987 0.9191 0.0496
vn -0.0136 0.6385 -0.7790
vn -0.5153 0.3162 0.6234
vn 0.5864 -0.5000 0.5732
vn -0.5310 0.5126 0.4886
vn -0.2979 -0.0292 0.8492
vn 0.1324 0.7840 -0.6743
vn 0.2854 0.6686 -0.7064
vn 0.1394 0.8622 -0.6069
vn -0.0021 1.0640 -0.3102
vn -0.0050 0.7806 -0.6841
vn -0.5234 0.3065 0.6197
vn 0.1486 -0.4958 0.8363
vn 0.6413 -0.3272 -0.4682
vn 0.5947 0.4181 -0.6046
vn 0.0110 -0.4633 0.8590
vn 0.7898 -0.1997 -0.2707
vn -0.3141 0.8949 0.3093
vn 0.7706 -0.4391 0.0072
vn -0.2095 0.8838 0.4386
vn -0.2367 0.6361 0.6596
vn 0.8370 -0.0859 -0.2140
vn 0.8315 -0.2980 0.0838
vn 0.0518 -0.4395 0.8674
vn -0.2768 -0.0087 0.8578
vn 0.1776 1.0269 -0.3935
vn 0.5495 0.5743 -0.5865
vn 0.2533 -0.6692 0.7080
vn 0.1363 1.0913 -0.2597
vn 0.5644 -0.2501 -0.6010
vn 0.5081 -0.2965 -0.6388
vn 0.8843 0.1949 -0.1376
vn -0.0559 -0.5942 -0.7887
vn 0.4861 -0.5931 -0.4763
vn 0.5164 -0.5827 -0.4471
vn 0.9066 0.0475 0.0849
vn -0.8338 0.2020 -0.3227
vn -0.8227 0.2506 -0.3091
vn -0.4644 0.8276 0.1728
vn -0.4385 0.8606 0.1492
vn -0.2485 -0.6669 -0.7498
vn -0.1476 -0.7779 -0.6779
vn 0.5643 -0.5414 -0.4183
vn 0.8378 -0.2569 -0.0185
vn 0.8737 -0.1490 0.0601
vn 0.0914 0.9756 0.4647
vn 0.1219 0.9210 0.5392
vn -0.4364 0.8126 0.2675
vn 0.0687 0.9251 0.5261
vn -0.8057 0.2148 -0.4030
vn -0.0497 -0.7253 -0.7068
vn -0.5765 0.7534 -0.1080
vn 0.7618 -0.3019 -0.2593
vn -0.4652 -0.7090 -0.6540
vn -0.6133 0.5946 -0.4290
vn 0.9096 0.1968 0.1771
vn 0.8843 0.0087 -0.0888
vn 0.8817 0.4610 0.0471
vn 0.9102 0.2310 0.0360
vn 0.8761 -0.0765 -0.0621
vn -0.6226 0.6891 -0.1696
vn -0.7266 0.5212 -0.2017
vn -0.6655 0.6006 -0.2749
vn -0.6035 0.6970 -0.2462
vn -0.1930 -0.6305 -0.7756
vn -0.1950 -0.6405 -0.7698
vn 0.5100 -0.6010 -0.4381
vn -0.3667 0.8673 0.2833
vn 0.0166 0.9572 0.4705
vn 0.0199 0.9348 0.5013
vn -0.4480 -0.5152 -0.7706
vn -0.4247 -0.5989 -0.7409
# 196 vertex normals

vt 0.5000 0.0000 0.0000
vt 0.5000 1.0000 0.0000
vt 0.0000 0.5000 0.0000
vt 1.0000 0.5000 0.0000
vt 0.5000 0.6857 0.0000
vt 0.6875 0.8359 0.0000
vt 0.2500 0.5625 0.0000
vt 0.5000 0.5000 0.0000
vt 0.0000 1.0000 0.0000
vt 0.0000 0.7500 0.0000
vt 0.5000 0.7053 0.0000
vt 1.0000 0.7500 0.0000
vt 1.0000 1.0000 0.0000
vt 0.2500 0.5000 0.0000
vt 0.8750 0.5938 0.0000
vt 0.0000 0.6250 0.0000
vt 0.0000 0.0000 0.0000
vt 0.2500 0.0000 0.0000
vt 1.0000 0.0000 0.0000
vt 0.7500 0.0000 0.0000
vt 0.5000 0.8429 0.0000
vt 0.3438 0.7383 0.0000
vt 0.6250 0.6714 0.0000
vt 1.0000 0.6250 0.0000
vt 1.0000 0.8750 0.0000
vt 0.0000 0.8750 0.0000
vt 0.7500 0.5625 0.0000
vt 0.8750 0.7188 0.0000
vt 0.3642 0.8738 0.0000
vt 0.1821 0.7494 0.0000
vt 0.3750 0.6026 0.0000
vt 0.7500 0.5000 0.0000
vt 0.5000 0.7500 0.0000
vt 0.5000 0.8125 0.0000
vt 0.8750 0.5000 0.0000
vt 0.1667 0.8438 0.0000
vt 0.7500 0.8125 0.0000
vt 0.1667 0.5417 0.0000
vt 0.8333 0.5417 0.0000
# 39 texture coords

g Object001
usemtl wire_115115115
s 4
f 1/1/1 2/2/2 3/3/3 
f 1/1/1 4/4/4 2/2/2 
s 8
f 5/5/5 6/6/6 7/7/7 8/8/8 
s 32
f 4/9/9 9/10/10 10/11/11 2/2/12 
s 8
f 9/12/13 5/5/5 8/8/8 11/4/14 
f 1/2/15 3/9/16 6/6/6 5/5/5 
s 32
f 3/13/17 2/2/12 10/11/11 6/6/18 
f 9/10/10 11/3/19 12/14/20 10/11/11 
s 8
f 4/13/21 1/2/15 5/5/5 9/12/13 
s 32
f 10/11/11 13/8/22 14/15/23 6/6/18 
f 12/14/20 13/8/22 10/11/11 
s 8
f 6/6/6 14/16/24 7/7/7 
f 15/17/25 16/18/26 7/7/7 14/16/24 
s 32
f 17/18/27 12/14/20 11/3/19 18/17/28 
s 8
f 18/19/29 11/4/14 8/8/8 19/1/30 
s 32
f 20/1/31 21/20/32 14/15/23 13/8/22 
f 20/1/31 13/8/22 12/14/20 17/18/27 
f 21/20/32 15/19/33 14/15/23 
s 8
f 16/18/26 19/1/30 8/8/8 7/7/7 
s 4
f 22/1/34 23/2/35 24/3/36 
f 22/1/34 25/4/37 23/2/35 
s 8
f 26/5/38 27/6/39 28/7/40 29/8/41 
s 32
f 25/9/42 30/10/43 31/11/44 23/2/45 
s 8
f 30/12/46 26/5/38 29/8/41 32/4/47 
f 22/2/48 24/9/49 27/6/39 26/5/38 
s 32
f 24/13/50 23/2/45 31/11/44 27/6/51 
f 30/10/43 32/3/52 33/14/53 31/11/44 
s 8
f 25/13/54 22/2/48 26/5/38 30/12/46 
s 32
f 31/11/44 34/8/55 35/15/56 27/6/51 
f 33/14/53 34/8/55 31/11/44 
s 8
f 27/6/39 35/16/57 28/7/40 
f 36/17/58 37/18/59 28/7/40 35/16/57 
s 32
f 38/18/60 33/14/53 32/3/52 39/17/61 
s 8
f 39/19/62 32/4/47 29/8/41 40/1/63 
s 32
f 41/1/64 42/20/65 35/15/56 34/8/55 
f 41/1/64 34/8/55 33/14/53 38/18/60 
f 42/20/65 36/19/66 35/15/56 
s 8
f 37/18/59 40/1/63 29/8/41 28/7/40 
s 4
f 43/1/67 44/2/68 45/3/69 
f 43/1/67 46/4/70 44/2/68 
s 8
f 47/8/71 43/21/72 48/22/73 49/7/74 
s 32
f 44/2/75 46/9/76 50/11/77 
s 8
f 51/12/78 43/21/72 52/23/79 53/24/80 
s 64
f 48/25/81 45/2/81 54/26/81 
s 8
f 43/21/72 45/9/82 48/22/73 
s 32
f 54/25/83 45/13/84 50/11/77 
f 55/27/85 56/24/86 57/12/87 58/28/88 
s 8
f 54/29/89 57/30/90 48/22/73 
s 32
f 51/10/91 53/16/92 59/31/93 50/11/77 
s 8
f 51/12/78 46/13/94 43/21/72 
s 32
f 54/25/83 50/11/77 58/28/88 
f 60/14/95 61/8/96 59/31/93 
s 8
f 43/21/72 47/8/71 52/23/79 
s 32
f 46/9/76 51/10/91 50/11/77 
f 45/13/84 44/2/75 50/11/77 
f 57/12/87 54/25/83 58/28/88 
s 8
f 56/16/97 49/7/74 48/22/73 57/30/90 
s 32
f 61/8/96 55/27/85 58/28/88 50/11/77 
s 8
f 52/23/79 62/32/98 63/4/99 53/24/80 
s 32
f 53/16/92 63/3/100 60/14/95 59/31/93 
s 8
f 47/8/71 62/32/98 52/23/79 
s 32
f 61/8/96 50/11/77 59/31/93 
s 8
f 64/17/101 65/18/102 49/7/74 56/16/97 
s 32
f 66/18/103 60/14/95 63/3/100 67/17/104 
s 8
f 62/32/98 47/8/71 68/1/105 69/20/106 
s 32
f 70/1/107 71/20/108 55/27/85 61/8/96 
f 70/1/107 61/8/96 60/14/95 66/18/103 
f 71/20/108 64/19/109 56/24/86 55/27/85 
s 8
f 68/1/105 47/8/71 49/7/74 65/18/102 
f 67/19/110 63/4/99 62/32/98 69/20/106 
s 4
f 72/1/111 73/2/112 74/3/113 
f 72/1/111 75/4/114 73/2/112 
s 8
f 76/26/115 77/7/116 78/8/117 79/5/118 
s 32
f 75/9/119 80/10/120 81/11/121 73/2/122 
s 8
f 82/24/123 80/12/124 79/5/118 
s 64
f 76/25/125 74/2/125 83/26/125 
s off
f 83/25/126 84/33/126 85/34/126 
f 86/16/127 76/26/127 84/33/127 
f 76/25/128 83/26/128 85/34/128 
s 8
f 74/9/129 76/26/115 79/5/118 72/2/130 
s 32
f 74/13/131 73/2/122 81/11/121 83/25/132 
f 83/25/132 81/11/121 87/27/133 86/24/134 
s off
f 83/25/135 86/24/135 84/33/135 
f 76/26/136 85/34/136 84/33/136 
s 8
f 79/5/118 88/35/137 82/24/123 
s 32
f 82/16/138 89/8/139 81/11/121 
f 80/10/120 82/16/138 81/11/121 
s 8
f 75/13/140 72/2/130 79/5/118 80/12/124 
s 32
f 82/16/138 90/14/141 89/8/139 
s 8
f 76/26/115 86/16/142 77/7/116 
f 79/5/118 78/8/117 88/35/137 
s 32
f 82/16/138 88/3/143 90/14/141 
f 81/11/121 89/8/139 87/27/133 
s 8
f 77/7/116 86/16/142 91/17/144 92/18/145 
s 32
f 93/18/146 90/14/141 88/3/143 94/17/147 
s 8
f 95/20/148 88/35/137 78/8/117 96/1/149 
s 32
f 97/20/150 87/27/133 89/8/139 98/1/151 
s 8
f 96/1/149 78/8/117 77/7/116 92/18/145 
f 95/20/148 94/19/152 88/35/137 
s 32
f 89/8/139 90/14/141 93/18/146 98/1/151 
f 97/20/150 91/19/153 86/24/134 87/27/133 
s 4
f 99/1/154 100/2/155 101/3/156 
f 99/1/154 102/4/157 100/2/155 
s 8
f 103/8/158 104/5/159 105/7/160 
s 32
f 102/9/161 106/10/162 107/11/163 100/2/164 
s 8
f 108/24/165 106/12/166 104/5/159 
f 99/2/167 101/9/168 109/36/169 104/5/159 
s 32
f 101/13/170 100/2/164 107/11/163 109/37/171 
f 109/37/171 107/11/163 110/8/172 111/24/173 
s 8
f 104/5/159 103/8/158 108/24/165 
s 32
f 107/11/163 108/16/174 110/8/172 
f 106/10/162 108/16/174 107/11/163 
s 8
f 102/13/175 99/2/167 104/5/159 106/12/166 
s off
f 112/3/176 113/14/176 108/16/176 114/38/176 
f 115/32/177 114/39/177 108/24/177 103/8/177 
f 115/32/178 112/4/178 114/39/178 
f 113/14/179 110/8/179 108/16/179 
s 8
f 111/16/180 105/7/160 104/5/159 109/36/169 
f 105/7/181 111/16/182 116/17/183 117/18/184 
s 32
f 118/18/185 113/14/186 112/3/187 119/17/188 
s 8
f 120/20/189 115/32/190 103/8/158 121/1/191 
s 32
f 122/1/192 116/19/193 111/24/194 110/8/172 
s 8
f 119/19/195 112/4/196 115/32/190 120/20/189 
s 32
f 122/1/192 110/8/172 113/14/186 118/18/185 
s 8
f 117/18/184 121/1/191 103/8/158 105/7/181 
# 72 polygons - 53 triangles

